<?xml version="1.0" encoding="UTF-8"?>
<svg xmlns="http://www.w3.org/2000/svg" width="230" height="150" viewBox="0 0 230 150"><defs><linearGradient id="dg" x1="0" y1="0" x2="0" y2="1"><stop offset="0" stop-color="#F6B899"></stop><stop offset="0.6" stop-color="#FDD4AE"></stop><stop offset="1" stop-color="#FFE8CC"></stop></linearGradient></defs>
<rect width="230" height="150" fill="url(#dg)"></rect><circle cx="115" cy="62" r="46" fill="#FFF1DA" opacity="0.8"></circle>
<rect x="16" y="26" width="46" height="6" rx="3" fill="#FFF3E6" opacity="0.7"></rect><rect x="160" y="20" width="54" height="6" rx="3" fill="#FFF3E6" opacity="0.6"></rect><rect x="176" y="48" width="36" height="5" rx="2.5" fill="#FFF3E6" opacity="0.5"></rect>
<path d="M0 118q55-16 115-4t115-8V150H0z" fill="#E7AE94"></path><path d="M0 130q60-10 120 0t110-4V150H0z" fill="#C98B7A"></path>
<g transform="translate(30 46) rotate(-16)"><rect x="-2" y="3" width="60" height="76" rx="10" fill="#C98B7A" opacity="0.35"></rect><rect width="60" height="76" rx="10" fill="#FFFBF5"></rect><rect x="5" y="5" width="50" height="48" rx="7" fill="#FDD6B8"></rect><path d="M5 53V34h9v-8h8v27zM24 53V30h10v23zM36 53V38h8v-6h11v21z" fill="#34466F"></path><circle cx="44" cy="16" r="6" fill="#FDC36E"></circle><rect x="8" y="59" width="34" height="5" rx="2.5" fill="#1D2B4B"></rect><rect x="8" y="67" width="22" height="4" rx="2" fill="#E3CDB9"></rect></g><g transform="translate(146 30) rotate(14)"><rect x="-2" y="3" width="60" height="76" rx="10" fill="#C98B7A" opacity="0.35"></rect><rect width="60" height="76" rx="10" fill="#FFFBF5"></rect><rect x="5" y="5" width="50" height="48" rx="7" fill="#CFD8F2"></rect><path d="M5 44q25-10 50 0v9H5z" fill="#8FA2D2"></path><g transform="translate(14 20) rotate(-14)"><path d="M0 6h26c3 0 5 1 5 2s-2 2-5 2H3l-3-3z" fill="#1D2B4B"></path><path d="M11 6l5-7h3l-3 7zM12 10l5 6h3l-3-6z" fill="#2A3A5E"></path></g><rect x="8" y="59" width="34" height="5" rx="2.5" fill="#1D2B4B"></rect><rect x="8" y="67" width="22" height="4" rx="2" fill="#E3CDB9"></rect></g><g transform="translate(92 10) rotate(-3)"><rect x="-2" y="3" width="60" height="76" rx="10" fill="#C98B7A" opacity="0.35"></rect><rect width="60" height="76" rx="10" fill="#FFFBF5"></rect><rect x="5" y="5" width="50" height="48" rx="7" fill="#FDC36E"></rect><rect x="18" y="26" width="20" height="18" rx="4" fill="#FF9E60"></rect><path d="M38 30a5 5 0 010 9" fill="none" stroke="#FF9E60" stroke-width="3"></path><ellipse cx="28" cy="46" rx="16" ry="3" fill="#FFFBF5"></ellipse><path d="M24 22c-3-4 3-6 0-10M32 22c-3-4 3-6 0-10" fill="none" stroke="#FFFBF5" stroke-width="2" stroke-linecap="round"></path><rect x="8" y="59" width="34" height="5" rx="2.5" fill="#1D2B4B"></rect><rect x="8" y="67" width="22" height="4" rx="2" fill="#E3CDB9"></rect></g><g transform="translate(88 60) rotate(4)"><rect x="-2" y="3" width="60" height="76" rx="10" fill="#C98B7A" opacity="0.35"></rect><rect width="60" height="76" rx="10" fill="#FFFBF5"></rect><rect x="5" y="5" width="50" height="48" rx="7" fill="#FF9E60"></rect><circle cx="30" cy="29" r="15" fill="#FFFBF5" opacity="0.35"></circle><text x="30" y="38" text-anchor="middle" font-family="Figtree, Helvetica, Arial, sans-serif" font-size="26" font-weight="800" fill="#1D2B4B">?</text><rect x="8" y="59" width="34" height="5" rx="2.5" fill="#1D2B4B"></rect><rect x="8" y="67" width="22" height="4" rx="2" fill="#E3CDB9"></rect></g>
<g transform="translate(186 100) rotate(14)"><rect x="-1" y="3" width="30" height="30" rx="7" fill="#C98B7A" opacity="0.4"></rect><rect width="30" height="30" rx="7" fill="#FFFBF5"></rect><circle cx="8" cy="8" r="2.3" fill="#1D2B4B"></circle><circle cx="22" cy="8" r="2.3" fill="#1D2B4B"></circle><circle cx="15" cy="15" r="2.3" fill="#1D2B4B"></circle><circle cx="8" cy="22" r="2.3" fill="#1D2B4B"></circle><circle cx="22" cy="22" r="2.3" fill="#1D2B4B"></circle></g>
<path d="M70 26l2 5 5 2-5 2-2 5-2-5-5-2 5-2z" fill="#FFFBF5"></path><path d="M164 70l1.5 3.5 3.5 1.5-3.5 1.5-1.5 3.5-1.5-3.5-3.5-1.5 3.5-1.5z" fill="#FFFBF5"></path>
</svg>